<svg fill="#ffffff" version="1.1" id="Layer_1" xmlns="http://www.w3.org/2000/svg" xmlns:xlink="http://www.w3.org/1999/xlink" viewBox="-25.6 -25.6 307.20 307.20" enable-background="new 0 0 256 249" xml:space="preserve" stroke="#ffffff" stroke-width="0.00256" transform="matrix(1, 0, 0, 1, 0, 0)rotate(0)"><g id="SVGRepo_bgCarrier" stroke-width="0" transform="translate(0,0), scale(1)"><path transform="translate(-25.6, -25.6), scale(19.2)" fill="#0F969C" d="M9.166.33a2.25 2.25 0 00-2.332 0l-5.25 3.182A2.25 2.25 0 00.5 5.436v5.128a2.25 2.25 0 001.084 1.924l5.25 3.182a2.25 2.25 0 002.332 0l5.25-3.182a2.25 2.25 0 001.084-1.924V5.436a2.25 2.25 0 00-1.084-1.924L9.166.33z" strokewidth="0"></path></g><g id="SVGRepo_tracerCarrier" stroke-linecap="round" stroke-linejoin="round" stroke="#0F969C" stroke-width="8.704"></g><g id="SVGRepo_iconCarrier"> <path d="M47.522,170.287l11.172,76.681h138.612l11.172-76.681H47.522z M128,215.249c-5.748,0-10.407-3.063-10.407-6.84 s4.659-6.84,10.407-6.84c5.748,0,10.407,3.062,10.407,6.84S133.748,215.249,128,215.249z M233.315,233.054h-26.028l10.292-70.639 H38.421l10.292,70.639H22.685c-14.848,0-24.85-15.195-18.978-28.834l36.809-85.489c7.149-16.605,23.493-27.362,41.571-27.362h14.486 l22.885,34.061l4.665-22.254l-7.809-11.807h23.491l-7.81,11.807l4.655,22.098l22.78-33.905h14.486 c18.078,0,34.422,10.757,41.571,27.362l36.808,85.489C258.165,217.858,248.164,233.054,233.315,233.054z M128,2.033 c22.496,0,40.733,18.237,40.733,40.733S150.496,83.498,128,83.498S87.267,65.261,87.267,42.765S105.504,2.033,128,2.033z"></path> </g></svg>